<svg width="218" height="218" viewBox="0 0 218 218" fill="none" xmlns="http://www.w3.org/2000/svg">
<g clip-path="url(#clip0)">
<path d="M145.474 66.0043C144.499 71.0713 138.515 74.18 132.109 72.9476C125.702 71.7153 121.298 66.6083 122.273 61.5412C123.247 56.4742 129.232 53.3655 135.638 54.5979C142.045 55.8302 146.449 60.9372 145.474 66.0043Z" fill="#3BD57B"/>
<path d="M175.714 163.26L57.33 140.488C55.4999 140.136 54.1778 138.528 54.1858 136.662L57.7527 56.1382C57.7588 54.9838 57.4925 53.4437 58.3022 52.6339C59.112 51.8242 59.9217 51.8242 59.9217 51.8242L203.336 78.778C204.458 78.9939 205.428 79.6951 205.985 80.6929C206.544 81.6911 206.635 82.886 206.23 83.9553L180.073 160.821C179.408 162.586 177.567 163.616 175.714 163.26ZM61.9539 133.48L173.972 155.028L197.352 85.5236L65.4882 60.8432L61.9539 133.48Z" fill="#3BD57B"/>
<path d="M58.9498 79.9509L196.02 106.318L194.555 113.933L57.485 87.5657L58.9498 79.9509Z" fill="#3BD57B"/>
<path d="M59.2792 106.945L186.9 131.494L185.435 139.109L57.8144 114.56L59.2792 106.945Z" fill="#3BD57B"/>
<path d="M92.9579 63.1608L100.214 63.8211L93.09 142.103L85.8338 141.442L92.9579 63.1608Z" fill="#3BD57B"/>
<path d="M162.28 76.9217L169.774 78.9164L149.116 156.52L141.623 154.525L162.28 76.9217Z" fill="#3BD57B"/>
<path d="M128.071 71.1767L135.688 72.6418L121.039 148.793L113.423 147.328L128.071 71.1767Z" fill="#3BD57B"/>
<path d="M104.644 28.1945C103.2 26.5228 103.384 23.9969 105.056 22.5526L105.638 22.0492C107.31 20.605 109.836 20.7893 111.28 22.4609L141.21 57.1025C142.654 58.7741 142.47 61.3001 140.798 62.7444L140.216 63.2477C138.544 64.692 136.018 64.5077 134.574 62.836L104.644 28.1945Z" fill="#7BED9F"/>
<path d="M70.4485 24.2926C69.5541 24.2926 68.829 23.5676 68.829 22.6731V22.6731C68.829 21.7787 69.5541 21.0536 70.4485 21.0536L107.697 21.0536C108.592 21.0536 109.317 21.7787 109.317 22.6731V22.6731C109.317 23.5676 108.592 24.2926 107.697 24.2926L70.4485 24.2926Z" fill="#7BED9F"/>
<path d="M30.7706 55.0632C29.8762 55.0632 29.1511 54.3381 29.1511 53.4437V53.4437C29.1511 52.5493 29.8762 51.8242 30.7706 51.8242L59.9217 51.8242C60.8162 51.8242 61.5412 52.5493 61.5412 53.4437V53.4437C61.5412 54.3381 60.8162 55.0632 59.9217 55.0632L30.7706 55.0632Z" fill="#3BD57B"/>
<path d="M137.658 163.57C136.764 163.57 136.039 162.845 136.039 161.951V161.951C136.039 161.056 136.764 160.331 137.658 160.331L176.526 160.331C177.421 160.331 178.146 161.056 178.146 161.951V161.951C178.146 162.845 177.421 163.57 176.526 163.57L137.658 163.57Z" fill="#3BD57B"/>
<path d="M119.843 158.712C118.949 158.712 118.224 157.987 118.224 157.092V157.092C118.224 156.198 118.949 155.473 119.843 155.473L155.473 155.473C156.367 155.473 157.092 156.198 157.092 157.092V157.092C157.092 157.987 156.367 158.712 155.473 158.712L119.843 158.712Z" fill="#3BD57B"/>
<path d="M106.887 158.712C105.993 158.712 105.268 157.987 105.268 157.092V157.092C105.268 156.198 105.993 155.473 106.887 155.473L113.365 155.473C114.26 155.473 114.985 156.198 114.985 157.092V157.092C114.985 157.987 114.26 158.712 113.365 158.712L106.887 158.712Z" fill="#3BD57B"/>
<path d="M40.4876 59.9218C39.5932 59.9218 38.8681 59.1967 38.8681 58.3022V58.3022C38.8681 57.4078 39.5932 56.6827 40.4876 56.6827L58.3022 56.6827C59.1966 56.6827 59.9217 57.4078 59.9217 58.3023V58.3023C59.9217 59.1967 59.1966 59.9218 58.3022 59.9218L40.4876 59.9218Z" fill="#3BD57B"/>
<path d="M34.0096 59.9218C33.1152 59.9218 32.3901 59.1967 32.3901 58.3022V58.3022C32.3901 57.4078 33.1152 56.6827 34.0096 56.6827V56.6827C34.904 56.6827 35.6291 57.4078 35.6291 58.3022V58.3022C35.6291 59.1967 34.904 59.9218 34.0096 59.9218V59.9218Z" fill="#3BD57B"/>
<path d="M76.1168 29.1511C75.2224 29.1511 74.4973 28.426 74.4973 27.5316V27.5316C74.4973 26.6372 75.2224 25.9121 76.1168 25.9121L105.268 25.9121C106.162 25.9121 106.887 26.6372 106.887 27.5316V27.5316C106.887 28.426 106.162 29.1511 105.268 29.1511L76.1168 29.1511Z" fill="#7BED9F"/>
<path d="M51.8242 24.2926C50.9298 24.2926 50.2047 23.5676 50.2047 22.6731V22.6731C50.2047 21.7787 50.9298 21.0536 51.8242 21.0536L63.1607 21.0536C64.0552 21.0536 64.7802 21.7787 64.7802 22.6731V22.6731C64.7802 23.5676 64.0552 24.2926 63.1607 24.2926L51.8242 24.2926Z" fill="#7BED9F"/>
</g>
<defs>
<clipPath id="clip0">
<rect x="35.156" width="186.112" height="186.112" transform="rotate(10.8884 35.156 0)" fill="white"/>
</clipPath>
</defs>
</svg>
